<svg xmlns="http://www.w3.org/2000/svg" width="17.962" height="17.962" viewBox="0 0 17.962 17.962">
  <g id="Group_20" data-name="Group 20" transform="translate(-33.163 -168.019)">
    <g id="Group_11" data-name="Group 11" transform="translate(-19.837 7.019)">
      <path id="Path_25" data-name="Path 25" d="M6.923,0H1.31A1.311,1.311,0,0,0,0,1.31V4.678a1.311,1.311,0,0,0,1.31,1.31H6.923a1.311,1.311,0,0,0,1.31-1.31V1.31A1.311,1.311,0,0,0,6.923,0Zm0,0" transform="translate(53 161)" fill="#26ccc9"/>
      <path id="Path_26" data-name="Path 26" d="M6.923,213.332H1.31A1.311,1.311,0,0,0,0,214.642V222.5a1.311,1.311,0,0,0,1.31,1.31H6.923a1.311,1.311,0,0,0,1.31-1.31v-7.858A1.311,1.311,0,0,0,6.923,213.332Zm0,0" transform="translate(53 -44.848)" fill="#26ccc9"/>
      <path id="Path_27" data-name="Path 27" d="M284.255,341.332h-5.613a1.311,1.311,0,0,0-1.31,1.31v3.368a1.311,1.311,0,0,0,1.31,1.31h5.613a1.311,1.311,0,0,0,1.31-1.31v-3.368A1.311,1.311,0,0,0,284.255,341.332Zm0,0" transform="translate(-214.603 -168.358)" fill="#26ccc9"/>
      <path id="Path_28" data-name="Path 28" d="M284.255,0h-5.613a1.311,1.311,0,0,0-1.31,1.31V9.168a1.311,1.311,0,0,0,1.31,1.31h5.613a1.311,1.311,0,0,0,1.31-1.31V1.31A1.311,1.311,0,0,0,284.255,0Zm0,0" transform="translate(-214.603 161)" fill="#26ccc9"/>
    </g>
  </g>
</svg>
