<svg xmlns="http://www.w3.org/2000/svg" width="40.063" height="47.662" viewBox="0 0 40.063 47.662">
  <g id="slide" transform="translate(-4.687)">
    <g id="Group_15" data-name="Group 15" transform="translate(4.687 0)">
      <circle id="Ellipse_4" data-name="Ellipse 4" cx="4.827" cy="4.827" r="4.827" transform="translate(0.273)" fill="red"/>
      <path id="Path_39" data-name="Path 39" d="M45.239,25.079a23.467,23.467,0,0,0-6.359-3.355,3.131,3.131,0,0,0-2.245.039,3.016,3.016,0,0,0-.6-.057,15.7,15.7,0,0,0-6.706,1.581,6.273,6.273,0,0,0-.6-1.051L25.982,18.39a16.109,16.109,0,0,0,5.25-6.83c1.359-3.3-3.846-5.134-5.194-1.86a9.851,9.851,0,0,1-3.266,4.193l-1.5-2.1a63.231,63.231,0,0,0,8.192-7.168c2.381-2.5-1.774-5.871-4.143-3.384A61.622,61.622,0,0,1,14.773,9.826a4.275,4.275,0,0,0-.8.545c-2.062,1.8-1.947,4.535-.461,6.617l8.141,11.4a3.726,3.726,0,0,0,1.868,1.352c3.684,4.07,5.057,8.735,4.781,14.562-.169,3.551,5.339,3.871,5.508.317.276-5.815-.857-11.046-3.813-15.546a11.285,11.285,0,0,1,6.514-2.041,2.691,2.691,0,0,0,.9-.164,18.405,18.405,0,0,1,4.445,2.35,2.674,2.674,0,1,0,3.383-4.142Z" transform="translate(-6.149 -0.07)" fill="red"/>
      <path id="Path_40" data-name="Path 40" d="M13.577,55.394A36.027,36.027,0,0,1,8.556,54.06a11.775,11.775,0,0,1-2.31-1.09,3.034,3.034,0,0,1-1.537-1.942,2.165,2.165,0,0,0,.264,1.346,4.44,4.44,0,0,0,.871,1.1,9.645,9.645,0,0,0,2.3,1.53,21.741,21.741,0,0,0,5.165,1.686,32.841,32.841,0,0,0,5.353.614,28.654,28.654,0,0,0,5.361-.287c-1.774-.278-3.527-.493-5.269-.746S15.284,55.75,13.577,55.394Z" transform="translate(-4.687 -9.663)" fill="red"/>
      <path id="Path_41" data-name="Path 41" d="M20.556,51.775a30.353,30.353,0,0,1-3.009-.738,8.017,8.017,0,0,1-1.4-.573,1.861,1.861,0,0,1-1.01-1.073,1.8,1.8,0,0,0,.608,1.583,5.59,5.59,0,0,0,1.393,1.012,11.746,11.746,0,0,0,3.153,1.091,16.194,16.194,0,0,0,3.272.318,13.08,13.08,0,0,0,3.263-.378c-1.073-.276-2.125-.464-3.172-.656Z" transform="translate(-6.659 -9.354)" fill="red"/>
    </g>
  </g>
</svg>
