<svg xmlns="http://www.w3.org/2000/svg" width="47.126" height="42.925" viewBox="0 0 47.126 42.925">
  <g id="Group_20" data-name="Group 20" transform="translate(-1076.396 -664.43)">
    <line id="Line_1" data-name="Line 1" x2="20.003" transform="translate(1077.896 684.441)" fill="none" stroke="#26ccc9" stroke-linecap="round" stroke-width="3"/>
    <path id="Path_7" data-name="Path 7" d="M0,0H19.4" transform="translate(1082.097 678.287)" fill="none" stroke="#26ccc9" stroke-linecap="round" stroke-width="3"/>
    <path id="Path_8" data-name="Path 8" d="M0,0H13.4" transform="translate(1084.697 689.801)" fill="none" stroke="#26ccc9" stroke-linecap="round" stroke-width="3"/>
    <g id="Group_3" data-name="Group 3" transform="translate(1102.341 664.43)">
      <path id="Path_5" data-name="Path 5" d="M15.946,48.812a2.464,2.464,0,0,0,.51,3.37,2.418,2.418,0,0,0,3.372-.509,15.516,15.516,0,0,1,3.87-4.113,21.2,21.2,0,0,1-1.353-5.816S17.511,46.142,15.946,48.812Z" transform="translate(-15.164 -11.554)" fill="#26ccc9"/>
      <path id="Path_6" data-name="Path 6" d="M35.436,20.464a49.814,49.814,0,0,0-9.165-6.58,4.107,4.107,0,0,0-1.195-.622,2.426,2.426,0,0,0-.843-.181,3.58,3.58,0,0,0-1.328.083,3.429,3.429,0,0,0-2.268,1.827A46.954,46.954,0,0,0,15.36,22.7c-1.52,2.716,2.645,5.147,4.163,2.433.474-.85.963-1.687,1.474-2.509q.661,4.452,1.319,8.9a2.828,2.828,0,0,0,.775,1.54A42.92,42.92,0,0,0,26.756,45.3c1.35,2.8,5.507.352,4.163-2.434a35.756,35.756,0,0,1-2.876-9.235,4.04,4.04,0,0,0,1.47-4.028q-.653-4.4-1.3-8.794a47.823,47.823,0,0,1,3.815,3.062C34.343,25.931,37.765,22.534,35.436,20.464Z" transform="translate(-15.032 -3.613)" fill="#26ccc9"/>
      <circle id="Ellipse_1" data-name="Ellipse 1" cx="4.201" cy="4.201" r="4.201" transform="translate(4.639)" fill="#26ccc9"/>
    </g>
  </g>
</svg>
