<svg xmlns="http://www.w3.org/2000/svg" width="20.309" height="20.309" viewBox="0 0 20.309 20.309">
  <g id="scroll" transform="translate(0 0)">
    <path id="Path_30" data-name="Path 30" d="M2.279,0A2.381,2.381,0,0,0,.034,1.587.6.6,0,0,0,.6,2.38H4.659A2.38,2.38,0,0,0,2.279,0Z" transform="translate(0 0)" fill="#8d8d8d"/>
    <path id="Path_31" data-name="Path 31" d="M248.9,452a4.168,4.168,0,0,1-1.224,2.38H255.5a2.976,2.976,0,0,0,2.575-1.487.595.595,0,0,0-.515-.893H248.9Z" transform="translate(-237.849 -434.07)" fill="#8d8d8d"/>
    <path id="Path_32" data-name="Path 32" d="M99.53,0H89.176c.4.446,1.56,1.443.554,6.619-.659,3.555-2.026,7.231-1.994,10.836a2.97,2.97,0,0,0,5.938-.121.6.6,0,0,1,.595-.595h5.867a32.01,32.01,0,0,1,1.16-6.4A30.644,30.644,0,0,0,102.5,2.975,2.978,2.978,0,0,0,99.53,0Zm-1.2,13.09H90.807a.595.595,0,0,1,0-1.19h7.527a.595.595,0,0,1,0,1.19Zm.566-2.38H91.388a.595.595,0,1,1,0-1.19H98.9a.595.595,0,0,1,0,1.19Zm.581-2.38H91.936a.595.595,0,0,1,0-1.19H99.48a.595.595,0,0,1,0,1.19Zm.454-2.38H92.348a.595.595,0,1,1,0-1.19h7.586a.595.595,0,1,1,0,1.19Z" transform="translate(-84.256)" fill="#8d8d8d"/>
  </g>
</svg>
