<svg xmlns="http://www.w3.org/2000/svg" width="138.803" height="329.976" viewBox="0 0 138.803 329.976">
  <g id="standing-human-body-silhouette" transform="translate(-59.768)">
    <g id="Group_16" data-name="Group 16" transform="translate(59.768 0)">
      <path id="Path_44" data-name="Path 44" d="M130.933,188.653c-.486,5.726,3.4,36.031,5.406,47.914.955,5.63,3.573,14.8,2.631,19.671-1.345,6.787-1.734,15.571-.993,20.685.467,3.106,1.937,17.431-.166,22.67-1.1,2.748-3.117,16.828-3.117,16.828-5.254,13.265-2.289,12.612-2.289,12.612,1.626,2,4.412.157,4.412.157a2.729,2.729,0,0,0,3.592-.321c1.822,1.508,3.945-.186,3.945-.186,2.289,1.188,4.411-1,4.411-1,1.315.662,1.636-.174,1.636-.174,3.944-.253-2.2-12.874-2.2-12.874-1.471-11.336,1.46-17.645,1.46-17.645,9.6-28.476,10.09-36.032,6.252-46.764-1.081-3.1-1.355-4.325-.857-5.67,1.15-3.1.312-15.59,1.714-20.548,2.706-9.562,5.375-33.813,6.767-45.128,1.87-15.241-6.623-35.677-6.623-35.677-1.86-8.316.867-37.947.867-37.947,3.808,5.925,3.662,16.385,3.662,16.385-.6,10.97,8.862,27.735,8.862,27.735a44.649,44.649,0,0,1,6.271,13.989c0,2-.437,6.827-.437,6.827l.174,4.208a60.014,60.014,0,0,1,.584,6.544c-.71,10.974,1.033,8.91,1.033,8.91,1.471,0,3.088-8.831,3.088-8.831,0,2.277-.557,9.1.672,11.667,1.47,3.067,2.551-.526,2.57-1.247.389-13.973,1.228-10.312,1.228-10.312.817,11.336,1.822,13.9,3.622,13.01,1.364-.651.117-13.6.117-13.6,2.337,7.694,4.109,8.919,4.109,8.919,3.856,2.708,1.471-4.771.936-6.252-2.853-7.869-2.941-10.6-2.941-10.6,3.565,7.071,6.252,6.808,6.252,6.808,3.477-1.11-3.039-11.122-6.856-15.918-1.948-2.444-4.46-5.716-5.19-7.659-1.188-3.291-2.086-13.872-2.086-13.872-.36-12.486-3.447-17.909-3.447-17.909-5.278-8.448-6.271-24.206-6.271-24.206l-.234-26.6c-1.85-18.147-15.222-18.278-15.222-18.278-13.516-2.012-15.4-6.378-15.4-6.378-2.863-4.12-1.227-12.017-1.227-12.017,2.375-1.932,3.291-7.061,3.291-7.061,3.944-3.024,3.75-7.45,1.929-7.4-1.462.038-1.131-1.172-1.131-1.172C148.21,1.017,130.525,0,130.525,0h-2.7s-17.693,1.017-15.23,20.933c0,0,.331,1.212-1.143,1.172-1.817-.048-1.986,4.377,1.943,7.4,0,0,.915,5.127,3.291,7.061,0,0,1.636,7.9-1.227,12.017,0,0-1.874,4.366-15.4,6.378,0,0-13.394.131-15.216,18.278l-.253,26.6s-.974,15.758-6.272,24.206c0,0-3.072,5.425-3.427,17.909,0,0-.9,10.581-2.084,13.872-.721,1.934-3.232,5.206-5.2,7.659-3.851,4.787-10.324,14.778-6.861,15.918,0,0,2.7.262,6.252-6.808,0,0-.074,2.708-2.922,10.6-.56,1.462-2.941,8.94.916,6.252,0,0,1.786-1.227,4.109-8.919,0,0-1.246,12.953.141,13.6,1.812.888,2.8-1.674,3.618-13.01,0,0,.838-3.661,1.227,10.312.019.721,1.076,4.315,2.552,1.247,1.246-2.572.686-9.378.686-11.667,0,0,1.6,8.831,3.091,8.831,0,0,1.758,2.065,1.036-8.91a55.24,55.24,0,0,1,.59-6.544l.17-4.208s-.438-4.82-.438-6.827a44.6,44.6,0,0,1,6.271-13.989S97.509,132.6,96.9,121.634c0,0-.131-10.459,3.677-16.385,0,0,2.7,29.629.872,37.947,0,0-8.507,20.436-6.631,35.677,1.382,11.345,4.046,35.564,6.759,45.128,1.417,4.948.579,17.431,1.714,20.548.512,1.355.243,2.6-.857,5.67-3.818,10.731-3.331,18.29,6.271,46.764,0,0,2.956,6.309,1.462,17.645,0,0-6.135,12.622-2.205,12.874,0,0,.307.836,1.636.174,0,0,2.122,2.191,4.416,1,0,0,2.124,1.7,3.939.186a2.707,2.707,0,0,0,3.578.321s2.786,1.879,4.441-.157c0,0,2.941.653-2.295-12.612,0,0-2.006-14.063-3.111-16.828-2.108-5.238-.619-19.593-.17-22.67.724-5.143.336-13.906-.988-20.685-.969-4.859,1.655-14.032,2.624-19.671,1.991-11.872,5.893-42.179,5.406-47.914l1.612.566A3.271,3.271,0,0,0,130.933,188.653Z" transform="translate(-59.768 0)" fill="#005857"/>
    </g>
  </g>
</svg>
