<svg xmlns="http://www.w3.org/2000/svg" width="132.538" height="58.99" viewBox="0 0 132.538 58.99">
  <g id="Group_735" data-name="Group 735" transform="translate(-121 -99)">
    <path id="Path_1" data-name="Path 1" d="M53.982,11.4a21.292,21.292,0,0,0-15.316,5.914C34.571,21.257,32.6,26.261,32.6,32.479c0,6.066,1.971,11.222,6.066,15.164a21.292,21.292,0,0,0,15.316,5.914q8.644,0,16.833-6.824a6.6,6.6,0,0,1,1.062-.91,5.457,5.457,0,0,0,1.365-3.336,5.049,5.049,0,0,0-5-5A4.894,4.894,0,0,0,65.052,38.7h0c-3.488,3.185-7.127,4.7-10.615,4.7A10.512,10.512,0,0,1,46.7,40.364a10.869,10.869,0,0,1-3.033-7.886A10.869,10.869,0,0,1,46.7,24.593a10.512,10.512,0,0,1,7.734-3.033q7.051,0,14.1,8.189s6.824-7.279,7.127-7.127h0C68.54,15.191,61.413,11.4,53.982,11.4Z" transform="translate(132.377 104.433)" fill="#fff"/>
    <path id="Path_2" data-name="Path 2" d="M28.318,15.919a14.664,14.664,0,0,1,11.222,4.7q4.549,4.549,4.549,12.738V55.65A3.69,3.69,0,0,1,40.45,59.29H34.99a3.69,3.69,0,0,1-3.639-3.639V35.178a7.31,7.31,0,0,0-2.123-5.611A7.207,7.207,0,0,0,23.92,27.6a7.91,7.91,0,0,0-5.763,2.123,9.357,9.357,0,0,0-2.123,6.521V55.8a3.432,3.432,0,0,1-3.488,3.488H6.633A3.042,3.042,0,0,1,3.6,56.257V3.788A3.432,3.432,0,0,1,7.088.3h6.369a2.879,2.879,0,0,1,2.881,2.881V21.075C18.764,17.739,22.859,15.919,28.318,15.919Z" transform="translate(117.4 98.7)" fill="#fff"/>
    <path id="Path_3" data-name="Path 3" d="M99.5,17.314A21.292,21.292,0,0,0,84.182,11.4c-6.066,0-12.132,2.578-17.894,7.886h0c-.455.455-.91.758-1.365,1.213a5.24,5.24,0,0,0-1.062,3.033,5.049,5.049,0,0,0,5,5,5.522,5.522,0,0,0,3.488-1.365h0c3.791-3.791,7.734-5.611,11.525-5.611a10.512,10.512,0,0,1,7.734,3.033,10.869,10.869,0,0,1,3.033,7.886,10.869,10.869,0,0,1-3.033,7.886A10.512,10.512,0,0,1,83.879,43.4c-4.7,0-9.4-2.881-14.1-8.492,0,0-6.066,7.734-6.976,7.279Q73.263,53.557,84.182,53.557A21.292,21.292,0,0,0,99.5,47.643c4.094-3.943,6.066-8.947,6.066-15.164S103.592,21.257,99.5,17.314Z" transform="translate(147.974 104.433)" fill="#fff"/>
    <path id="Path_4" data-name="Path 4" d="M62.958,31.958h0L62.2,31.2A1.827,1.827,0,0,1,62.958,31.958Z" transform="translate(147.664 114.658)" fill="#fff"/>
    <path id="Path_5" data-name="Path 5" d="M73.539,31.487s-6.066,7.734-6.976,7.279l-.455-.455h0a4.149,4.149,0,0,1-.607-.758c-1.516-1.82-5.156-6.369-7.431-9.1h0c-.758-.91-1.365-1.668-1.668-2.123l-.152-.152-.152-.152s6.824-7.279,7.127-7.127l.3.3.152.152.3.3.758.758a16.116,16.116,0,0,1,1.365,1.668c1.668,2.123,3.791,4.853,5.308,6.824.152.152.152.3.3.3.152.152.3.455.455.607,0,.152.152.152.152.3l.152.152c.152.152.152.3.3.3A11.164,11.164,0,0,1,73.539,31.487Z" transform="translate(144.514 108.305)" fill="#fff"/>
  </g>
</svg>
