<svg id="bench" xmlns="http://www.w3.org/2000/svg" width="42.309" height="42.309" viewBox="0 0 42.309 42.309">
  <g id="Group_9" data-name="Group 9" transform="translate(0.62 0.62)">
    <g id="Group_8" data-name="Group 8">
      <g id="Group_5" data-name="Group 5" transform="translate(32.757)">
        <ellipse id="Ellipse_2" data-name="Ellipse 2" cx="4.156" cy="10.321" rx="4.156" ry="10.321" transform="translate(0 0)" fill="#26ccc9"/>
        <path id="Path_9" data-name="Path 9" d="M440.444,7.5a2.015,2.015,0,0,0-1.239.467c1.69,1.31,2.917,5.226,2.917,9.854s-1.227,8.544-2.917,9.854a2.015,2.015,0,0,0,1.239.467c2.3,0,4.156-4.621,4.156-10.321S442.739,7.5,440.444,7.5Z" transform="translate(-436.287 -7.5)" fill="#26ccc9"/>
      </g>
      <g id="Group_6" data-name="Group 6" transform="translate(0 3.719)">
        <ellipse id="Ellipse_3" data-name="Ellipse 3" cx="4.156" cy="10.321" rx="4.156" ry="10.321" transform="translate(0 0)" fill="#26ccc9"/>
        <path id="Path_10" data-name="Path 10" d="M44.036,52.5a2.015,2.015,0,0,0-1.24.467c1.69,1.31,2.917,5.226,2.917,9.854s-1.227,8.544-2.917,9.854a2.015,2.015,0,0,0,1.24.467c2.3,0,4.156-4.621,4.156-10.321S46.331,52.5,44.036,52.5Z" transform="translate(-39.879 -52.5)" fill="#26ccc9"/>
      </g>
      <g id="Group_7" data-name="Group 7" transform="translate(6.817 15.451)">
        <path id="Path_11" data-name="Path 11" d="M0,0H18.758V2.6H0Z" transform="translate(2.479 24.379) rotate(-90)" fill="#26ccc9"/>
        <path id="Path_12" data-name="Path 12" d="M0,0H17.519V2.6H0Z" transform="translate(22.354 24.379) rotate(-90)" fill="#26ccc9"/>
        <path id="Path_13" data-name="Path 13" d="M120,360.973h2.6v4.668H120Z" transform="translate(-117.521 -347.215)" fill="#26ccc9"/>
        <path id="Path_14" data-name="Path 14" d="M360.51,360.973h2.6v4.668h-2.6Z" transform="translate(-338.156 -347.215)" fill="#26ccc9"/>
        <path id="Path_15" data-name="Path 15" d="M116.608,335.641H90.826a.826.826,0,0,1-.826-.826V331.8a.826.826,0,0,1,.826-.826h25.782a.826.826,0,0,1,.826.826v3.015A.826.826,0,0,1,116.608,335.641Z" transform="translate(-90 -319.694)" fill="#26ccc9"/>
        <path id="Path_16" data-name="Path 16" d="M384.479,330.973H382a.826.826,0,0,1,.826.826v3.015a.826.826,0,0,1-.826.826h2.479a.826.826,0,0,0,.826-.826V331.8A.826.826,0,0,0,384.479,330.973Z" transform="translate(-357.871 -319.694)" fill="#26ccc9"/>
        <path id="Path_17" data-name="Path 17" d="M360.51,277.5h2.6v3.179h-2.6Z" transform="translate(-338.156 -270.64)" fill="#26ccc9"/>
        <path id="Path_18" data-name="Path 18" d="M120,262.5h2.6v4.419H120Z" transform="translate(-117.521 -256.879)" fill="#26ccc9"/>
        <path id="Path_19" data-name="Path 19" d="M115.617,202.043h-23.8A1.818,1.818,0,0,1,90,200.225V196.3a1.818,1.818,0,0,1,1.818-1.818h23.8a1.818,1.818,0,0,1,1.818,1.818v3.924A1.818,1.818,0,0,1,115.617,202.043Z" transform="translate(-90 -194.483)" fill="#26ccc9"/>
        <path id="Path_20" data-name="Path 20" d="M372.479,194.483H370a1.818,1.818,0,0,1,1.818,1.818v3.924A1.818,1.818,0,0,1,370,202.043h2.479a1.818,1.818,0,0,0,1.818-1.818V196.3A1.818,1.818,0,0,0,372.479,194.483Z" transform="translate(-346.862 -194.483)" fill="#26ccc9"/>
      </g>
      <path id="Path_21" data-name="Path 21" d="M8.326,474.437H47.743a.827.827,0,0,1,.826.828v.828a.827.827,0,0,1-.826.828H8.326a.827.827,0,0,1-.826-.828v-.828A.827.827,0,0,1,8.326,474.437Z" transform="translate(-7.5 -435.852)" fill="#26ccc9"/>
      <path id="Path_22" data-name="Path 22" d="M466.979,474.437H464.5a.827.827,0,0,1,.826.828v.828a.827.827,0,0,1-.826.828h2.479a.827.827,0,0,0,.826-.828v-.828A.827.827,0,0,0,466.979,474.437Z" transform="translate(-426.736 -435.852)" fill="#26ccc9"/>
    </g>
  </g>
  <path id="Path_23" data-name="Path 23" d="M22.688,8.164a1.705,1.705,0,0,1,1.087.333,1.641,1.641,0,0,1,.423.475.785.785,0,0,0,1.35,0,1.64,1.64,0,0,1,.423-.475,1.707,1.707,0,0,1,1.087-.333.62.62,0,0,0,.048-1.239,2.946,2.946,0,0,0-1.882.582,2.858,2.858,0,0,0-.351.314,2.87,2.87,0,0,0-.351-.314,2.947,2.947,0,0,0-1.882-.582.62.62,0,0,0,.048,1.239ZM40.863,38.585h-2.71V21.8c1.132-.308,2.143-1.462,2.894-3.327a20.819,20.819,0,0,0,1.262-7.529,20.819,20.819,0,0,0-1.262-7.529C40.161,1.211,38.913,0,37.533,0s-2.628,1.211-3.514,3.411a20.819,20.819,0,0,0-1.262,7.529,24.405,24.405,0,0,0,.406,4.514c-.053,0-23.548,0-23.623,0,.008-.264.012-.529.012-.792A20.821,20.821,0,0,0,8.29,7.13C7.4,4.93,6.156,3.719,4.776,3.719s-2.6,1.188-3.487,3.345a.62.62,0,0,0,1.147.47C3.107,5.9,3.96,4.958,4.776,4.958c1.672,0,3.536,3.984,3.536,9.7,0,.328-.007.66-.02.99a2.441,2.441,0,0,0-1.475,2.239v3.924a2.435,2.435,0,0,0,.056.516A4.176,4.176,0,0,1,5.4,24.182V13.824a.62.62,0,0,0-1.24,0v10.36c-1.482-.827-2.917-4.509-2.917-9.525A22.848,22.848,0,0,1,1.658,10.2.62.62,0,0,0,.442,9.962,24.085,24.085,0,0,0,0,14.659a20.817,20.817,0,0,0,1.262,7.529c.751,1.865,1.762,3.019,2.894,3.327v13.07H1.446A1.449,1.449,0,0,0,0,40.033v.828a1.449,1.449,0,0,0,1.446,1.448H40.863a1.449,1.449,0,0,0,1.446-1.448v-.828a1.449,1.449,0,0,0-1.446-1.448ZM37.533,1.24c1.673,0,3.536,3.984,3.536,9.7,0,5.016-1.435,8.7-2.917,9.525V10.105a.62.62,0,0,0-1.24,0v10.36C34.552,19.146,34,13.681,34,10.94c0-5.717,1.864-9.7,3.536-9.7ZM27.234,31.4a.62.62,0,1,0,0,1.24h1.937v5.948H13.138V32.638h11.2a.62.62,0,0,0,0-1.24H8.263a.207.207,0,0,1-.207-.207V28.176a.207.207,0,0,1,.207-.207H34.046a.207.207,0,0,1,.207.207v3.015a.207.207,0,0,1-.207.207Zm4.54,1.24v5.948H30.41V32.638Zm-19.874,0v5.948H10.536V32.638ZM10.536,26.73V24.251H11.9V26.73H10.536Zm2.6,0V24.251H29.171V26.73H13.138Zm17.272,0V24.251h1.363V26.73H30.41Zm2.6,5.907h1.033a1.448,1.448,0,0,0,1.446-1.446V28.176a1.448,1.448,0,0,0-1.446-1.446H33.013V24.251h.041a2.441,2.441,0,0,0,2.438-2.438V20.9a3.158,3.158,0,0,0,1.422.9V38.585h-3.9ZM8.057,17.889a1.2,1.2,0,0,1,1.2-1.2c.382,0,23.861-.069,24.2.07a14.619,14.619,0,0,0,.561,1.709q.113.28.233.537v2.806a1.2,1.2,0,0,1-1.2,1.2H9.255a1.2,1.2,0,0,1-1.2-1.2ZM5.4,25.515a3.993,3.993,0,0,0,2.2-1.921,2.429,2.429,0,0,0,1.7.657V26.73H8.263a1.448,1.448,0,0,0-1.446,1.446v3.015a1.448,1.448,0,0,0,1.446,1.446H9.3v5.948H5.4ZM41.069,40.861a.208.208,0,0,1-.207.208H1.446a.208.208,0,0,1-.207-.208v-.828a.208.208,0,0,1,.207-.208H40.863a.208.208,0,0,1,.207.208ZM15.251,4.445a1.706,1.706,0,0,1,1.087.333,1.641,1.641,0,0,1,.423.475.785.785,0,0,0,1.35,0,1.64,1.64,0,0,1,.423-.475,1.708,1.708,0,0,1,1.087-.333.62.62,0,1,0,.048-1.239,2.946,2.946,0,0,0-1.882.582,2.858,2.858,0,0,0-.351.314,2.87,2.87,0,0,0-.351-.314A2.945,2.945,0,0,0,15.2,3.206a.62.62,0,1,0,.048,1.239Z" transform="translate(0 0)" fill="#26ccc9"/>
</svg>
