<svg xmlns="http://www.w3.org/2000/svg" width="20.718" height="20.761" viewBox="0 0 20.718 20.761">
  <g id="phone-call" transform="translate(0)">
    <g id="Group_10" data-name="Group 10" transform="translate(0)">
      <path id="Path_29" data-name="Path 29" d="M20.714,15.237l-2.9-2.9a1.927,1.927,0,0,0-3.208.724,1.972,1.972,0,0,1-2.276,1.242A8.934,8.934,0,0,1,6.951,8.925,1.875,1.875,0,0,1,8.193,6.648a1.927,1.927,0,0,0,.724-3.208L6.02.543a2.067,2.067,0,0,0-2.794,0L1.26,2.509c-1.966,2.07.207,7.554,5.07,12.417S16.678,22.066,18.748,20l1.966-1.966A2.067,2.067,0,0,0,20.714,15.237Z" transform="translate(-0.539 0)" fill="#8d8d8d"/>
    </g>
  </g>
</svg>
