<svg xmlns="http://www.w3.org/2000/svg" xmlns:xlink="http://www.w3.org/1999/xlink" width="51.158" height="43.977" viewBox="0 0 51.158 43.977">
  <defs>
    <filter id="Path_4" x="0" y="0" width="51.158" height="43.977" filterUnits="userSpaceOnUse">
      <feOffset dy="3" input="SourceAlpha"/>
      <feGaussianBlur stdDeviation="3" result="blur"/>
      <feFlood flood-opacity="0.2"/>
      <feComposite operator="in" in2="blur"/>
      <feComposite in="SourceGraphic"/>
    </filter>
  </defs>
  <g transform="matrix(1, 0, 0, 1, 0, 0)" filter="url(#Path_4)">
    <path id="Path_4-2" data-name="Path 4" d="M29.941,59H22.76a1.217,1.217,0,0,0-1.217,1.217v5.964H15.579A1.217,1.217,0,0,0,14.362,67.4v5.964H8.4a1.217,1.217,0,0,0-1.217,1.217v5.964H1.217a1.217,1.217,0,0,0,0,2.434H8.4A1.217,1.217,0,0,0,9.615,81.76V75.8h5.964A1.217,1.217,0,0,0,16.8,74.579V68.615H22.76A1.217,1.217,0,0,0,23.977,67.4V61.434h5.964a1.217,1.217,0,0,0,0-2.434Z" transform="translate(10 -52)" fill="#26ccc9" stroke="#26ccc9" stroke-width="2"/>
  </g>
</svg>
