<svg xmlns="http://www.w3.org/2000/svg" width="16.913" height="22.55" viewBox="0 0 16.913 22.55">
  <g id="survey" transform="translate(-64)">
    <g id="Group_13" data-name="Group 13" transform="translate(64)">
      <g id="Group_12" data-name="Group 12">
        <path id="Path_35" data-name="Path 35" d="M173.486,213.333a2.819,2.819,0,1,0,2.819,2.819A2.822,2.822,0,0,0,173.486,213.333Zm1.742,2.211-1.879,1.879a.47.47,0,0,1-.664,0l-.94-.94a.47.47,0,0,1,.664-.664l.608.607,1.547-1.547a.47.47,0,0,1,.664.664Z" transform="translate(-165.969 -203.937)" fill="#8d8d8d"/>
        <path id="Path_36" data-name="Path 36" d="M79.034,1.879H77.154a.447.447,0,0,0-.081.016A1.407,1.407,0,0,0,75.745.94H74.326a2.33,2.33,0,0,0-3.739,0H69.168A1.407,1.407,0,0,0,67.84,1.9a.447.447,0,0,0-.081-.016H65.879A1.881,1.881,0,0,0,64,3.758V20.671a1.881,1.881,0,0,0,1.879,1.879H79.034a1.881,1.881,0,0,0,1.879-1.879V3.758A1.881,1.881,0,0,0,79.034,1.879ZM68.7,2.349a.47.47,0,0,1,.47-.47h1.67a.471.471,0,0,0,.406-.234,1.394,1.394,0,0,1,2.425,0,.471.471,0,0,0,.406.234h1.67a.47.47,0,0,1,.47.47v.47a.941.941,0,0,1-.94.94H69.638a.941.941,0,0,1-.94-.94Zm8.319,15.366a.47.47,0,0,1-.664,0l-2.543-2.543a3.721,3.721,0,0,1-2.292.8,3.758,3.758,0,1,1,3.758-3.758,3.721,3.721,0,0,1-.8,2.292l2.543,2.543A.47.47,0,0,1,77.017,17.715Z" transform="translate(-64)" fill="#8d8d8d"/>
      </g>
    </g>
  </g>
</svg>
