<svg xmlns="http://www.w3.org/2000/svg" width="122.579" height="24.641" viewBox="0 0 122.579 24.641">
  <g id="the-university-of-chicago-vector-logo" transform="translate(-20.2 -260.989)">
    <path id="Path_24" data-name="Path 24" d="M142.084,262.748h0v-.041c-.02-.306-.02-.674-.02-1.083v-.082l-.082.02c-.1.02-.613.02-1.1.02h-1.512c-.306,0-.592,0-.96-.02h-.041a.211.211,0,0,0-.082.163.2.2,0,0,0,.061.163l.163.02c.409.041.429.1.429.981v2.962c0,.878-.02.919-.429.96l-.225.02-.02.02a.2.2,0,0,0-.041.184.188.188,0,0,0,.082.123h.041c.388-.02.654-.02,1.021-.02.327,0,.613,0,1.083.02h.041c.061-.02.082-.1.082-.163a.232.232,0,0,0-.061-.163l-.306-.041c-.429-.041-.449-.082-.449-.96v-1.144c0-.163,0-.163.2-.163h.552a2.266,2.266,0,0,1,.613.041.338.338,0,0,1,.225.266l.082.347.02.02c.082.061.266.061.306-.02l.02-.02v-.02a1.991,1.991,0,0,0-.02-.327c0-.143-.02-.327-.02-.49a3.775,3.775,0,0,1,.02-.49c0-.123.02-.245.02-.327v-.02l-.02-.02a.186.186,0,0,0-.163-.061.232.232,0,0,0-.163.061l-.082.347c-.041.2-.1.225-.163.245a4.012,4.012,0,0,1-.674.041h-.552c-.2,0-.2,0-.2-.163V262.2c0-.266,0-.266.184-.266h.511a3.882,3.882,0,0,1,.776.041c.347.1.449.327.531.735v.02l.02.02a.291.291,0,0,0,.123.041c.082.041.163.02.184-.041m-5.516,1.594a2.781,2.781,0,0,0-2.921-2.881,2.911,2.911,0,0,0-3,2.962,2.838,2.838,0,0,0,3,2.86,2.875,2.875,0,0,0,2.921-2.942m-.96.266c0,1.7-1,2.309-1.859,2.309-1.7,0-2.145-1.716-2.145-2.738,0-1.716,1.021-2.329,1.9-2.329,1.553,0,2.1,1.471,2.1,2.758m-6.721,14.035a6.659,6.659,0,0,0,7.028,6.7,6.744,6.744,0,0,0,6.864-6.885,6.51,6.51,0,0,0-6.864-6.783,6.8,6.8,0,0,0-7.028,6.967m1.982-.633c0-4.331,2.676-5.72,4.719-5.72,3.78,0,5.21,3.514,5.21,6.783,0,3.9-2.247,5.679-4.617,5.679-3.9-.041-5.312-3.82-5.312-6.742M126.5,261.89a.232.232,0,0,0,.061-.163.172.172,0,0,0-.082-.143l-.02-.02h-.02a9.84,9.84,0,0,1-1.553,0h-.041a.138.138,0,0,0-.082.123.206.206,0,0,0,.061.184l.02.02.163.02a.67.67,0,0,1,.286.082,7.092,7.092,0,0,1-.49.981l-.041.061c-.2.388-.429.8-.715,1.287-.225-.388-.429-.817-.633-1.246l-.245-.49a3.472,3.472,0,0,1-.245-.613c0-.02.041-.041.286-.082l.123-.02.02-.02a.223.223,0,0,0,.041-.2c-.02-.061-.041-.1-.1-.123h-.041c-.2.02-.49.02-.878.02s-.674,0-.94-.02h-.041a.188.188,0,0,0-.082.123.2.2,0,0,0,.041.184l.02.02.245.041c.225.041.327.061.613.592l.981,1.9a1.648,1.648,0,0,1,.266,1v.429c0,.9-.02.94-.429.981l-.286.02-.02.02a.2.2,0,0,0-.041.184.187.187,0,0,0,.082.123h.041c.449-.02.735-.02,1.083-.02.327,0,.633,0,1.124.02h.041a.187.187,0,0,0,.082-.123.3.3,0,0,0-.041-.184l-.02-.02-.327-.02c-.388-.02-.429-.082-.429-.981v-.429a1.925,1.925,0,0,1,.368-1.308l.511-.9a2.158,2.158,0,0,1,.143-.225c.327-.572.552-.981.9-1.042l.245-.02Zm-2.881,10.072a11.812,11.812,0,0,0-2.513-.286,8.186,8.186,0,0,0-6.272,2.309,6.779,6.779,0,0,0-1.777,4.678,6.247,6.247,0,0,0,1.818,4.495,8.254,8.254,0,0,0,6.027,2.186,16.043,16.043,0,0,0,3.534-.511,4.29,4.29,0,0,1,.96-.184.168.168,0,0,0,.02-.245c-.347-.143-.47-.613-.47-1.41v-1.1c0-1,.02-1.553.858-1.655l.306-.041a.333.333,0,0,0-.02-.49c-.654.041-1.328.061-2.1.061-1.165,0-2.247-.02-2.819-.061a.319.319,0,0,0,0,.49l.878.1c1.226.143,1.287.266,1.287,1.92v.8a2.138,2.138,0,0,1-.2,1.124c-.225.327-.94.592-2.166.592-3.963,0-5.925-2.983-5.925-6.783,0-2.962,1.675-5.7,5.516-5.7,2.023,0,3.493.674,4.045,2.8.123.123.47.1.531-.061a20.764,20.764,0,0,1-.286-2.86,4.827,4.827,0,0,1-1.226-.163m-3.371-10.5v-.02l-.02-.02a.17.17,0,0,0-.143-.061.154.154,0,0,0-.082.02h-.02l-.02.02c-.1.184-.143.2-.592.2h-3.412c-.368,0-.531-.02-.572-.2v-.02l-.02-.02a.173.173,0,0,0-.123-.041.3.3,0,0,0-.123.02l-.02.02v.02a10.742,10.742,0,0,1-.306,1.226v.02l.02.02a.231.231,0,0,0,.306.082h.02v-.02a1.026,1.026,0,0,1,1.308-.735h.449c.184,0,.184,0,.184.2v3.677c0,.9-.061.94-.449.96l-.306.02h-.02a.183.183,0,0,0-.082.163.137.137,0,0,0,.082.143h.041c.511-.02.817-.02,1.144-.02s.592,0,1.083.02h.041a.211.211,0,0,0,.082-.163.232.232,0,0,0-.061-.163l-.286-.041c-.409-.041-.429-.082-.429-.96v-3.7a.4.4,0,0,1,.02-.184.351.351,0,0,1,.163-.02h.592a1.489,1.489,0,0,1,.919.2.981.981,0,0,1,.184.552v.02l.02.02a.159.159,0,0,0,.143.061.183.183,0,0,0,.163-.082v-.041a5.41,5.41,0,0,1,.123-1.185m-7.5,4.372v-2.921c0-.9.02-.96.449-.981l.225-.02h.02c.041-.02.061-.082.061-.163a.244.244,0,0,0-.082-.163h-.041c-.388.02-.674.02-1.021.02s-.633,0-1.042-.02h-.041a.211.211,0,0,0-.082.163.232.232,0,0,0,.061.163h.02l.225.02c.429.041.449.082.449.981v2.921c0,.878-.02.94-.449.981l-.225.02-.02.02a.2.2,0,0,0-.041.184.138.138,0,0,0,.082.123h.041c.409-.02.695-.02,1.042-.02.327,0,.592,0,1.021.02h.041a.211.211,0,0,0,.082-.163.2.2,0,0,0-.061-.163l-.225-.041c-.47-.02-.49-.061-.49-.96m-1.369,18.693c-.858-.1-1.1-.388-1.675-2.1l-2.717-7.947c-.306-.878-.613-1.777-.878-2.656a.279.279,0,0,0-.286-.184,2.237,2.237,0,0,1-1.021.756,2.95,2.95,0,0,1-.327,1.41l-2.023,5.332c-.838,2.206-1.389,3.493-1.737,4.413a1.313,1.313,0,0,1-1.185.96l-.654.061a.374.374,0,0,0,.041.49c.531-.02,1.246-.061,1.9-.061.919.02,1.532.02,2.063.061a.308.308,0,0,0,.041-.49l-.654-.061c-.47-.041-.572-.163-.572-.388a7.785,7.785,0,0,1,.429-1.634l.695-2.084c.143-.409.266-.47.756-.47h2.983c.592,0,.674.061.817.49l.878,2.676a3.994,3.994,0,0,1,.266,1.042c0,.2-.286.306-.695.347l-.572.061a.32.32,0,0,0,.041.49c.572-.02,1.328-.061,2.268-.061.9,0,1.573.02,2.39.061a.373.373,0,0,0,0-.49Zm-5.087-5.373H103.86c-.552,0-.572-.02-.409-.47l1.246-3.432c.225-.592.409-1.062.47-1.165h.041c.123.245.286.776.449,1.246l1.062,3.228c.184.511.143.592-.429.592m.8-16.466a.8.8,0,0,1,.919-.858,1.021,1.021,0,0,1,1.062.878l.02.02c.02.041.061.041.123.041a.222.222,0,0,0,.184-.082l.02-.02v-.02a3.731,3.731,0,0,0-.143-1.022l-.02-.041h-.041a1.7,1.7,0,0,1-.266-.041,2.978,2.978,0,0,0-.776-.1,1.532,1.532,0,0,0-1.737,1.471,1.829,1.829,0,0,0,.919,1.471l.776.511a1.179,1.179,0,0,1,.654,1.1.87.87,0,0,1-.96.878,1.39,1.39,0,0,1-1.348-1.185v-.02a.124.124,0,0,0-.123-.061.222.222,0,0,0-.184.082l-.02.02v.02a4.364,4.364,0,0,0,.225,1.185v.02h.02a2.565,2.565,0,0,0,1.307.306,1.623,1.623,0,0,0,1.818-1.594,1.9,1.9,0,0,0-1.062-1.634l-.654-.409a1.082,1.082,0,0,1-.715-.919m-2.063,4.495a.1.1,0,0,0,.041-.123.136.136,0,0,0-.082-.1h-.02a.961.961,0,0,1-.531-.225,8.462,8.462,0,0,1-1.634-2.166.2.2,0,0,1-.041-.123,1.6,1.6,0,0,0,1.042-1.43,1.265,1.265,0,0,0-.715-1.205,2.986,2.986,0,0,0-1.41-.245c-.756,0-1.348.02-1.839.061h-.02a.172.172,0,0,0-.082.143c0,.061.02.143.061.163h.02l.286.041c.266.041.306.082.306.9v2.962c0,.878-.02.919-.429.96l-.225.02-.02.02a.22.22,0,0,0-.041.184.187.187,0,0,0,.082.123h.041c.368-.02.674-.02,1.021-.02s.633,0,.981.02h.041a.177.177,0,0,0,.082-.143c0-.082-.02-.143-.061-.163l-.02-.02-.184-.02c-.429-.061-.449-.1-.449-.96v-1.042c0-.123,0-.123.327-.123a.522.522,0,0,1,.531.245c.123.184.266.409.409.633s.286.449.388.613a1.941,1.941,0,0,0,1.757,1.062.788.788,0,0,0,.388-.041Zm-2.492-3.064a1.292,1.292,0,0,1-.817.2c-.368,0-.49-.02-.531-.02v-2.145c0-.184,0-.2.47-.2a1.152,1.152,0,0,1,1.246,1.205,1.052,1.052,0,0,1-.368.96m-4.249,1.859h0v-.041a.218.218,0,0,0-.184-.123.156.156,0,0,0-.1.041l-.02.02a2.276,2.276,0,0,1-.552.776,2.52,2.52,0,0,1-1.021.123c-.695,0-.858-.082-.96-.163-.123-.123-.143-.388-.143-.817v-1.164c0-.163,0-.163.2-.163h.47a2.27,2.27,0,0,1,.613.041c.123.02.184.1.2.266l.082.327.02.02a.2.2,0,0,0,.163.061c.082,0,.143-.02.163-.082v-.02h0a1.764,1.764,0,0,0-.02-.306c0-.143-.02-.327-.02-.49s.02-.347.02-.511c0-.123.02-.245.02-.327V263.4a.183.183,0,0,0-.163-.082.232.232,0,0,0-.163.061l-.082.368c-.041.184-.082.225-.163.245a3.818,3.818,0,0,1-.674.041H95.5c-.2,0-.2,0-.2-.163v-1.655c0-.266,0-.266.184-.266h.592a3.879,3.879,0,0,1,.776.041c.368.1.449.327.572.695l.02.041.02.02a.146.146,0,0,0,.123.061.222.222,0,0,0,.184-.082l.02-.02-.02-.123a8.562,8.562,0,0,0-.123-1.021l-.02-.061-.061.02c-.1.02-.592.02-1.1.02H94.912c-.327,0-.592,0-.96-.02h-.041a.211.211,0,0,0-.082.163.232.232,0,0,0,.061.163l.163.02c.429.041.449.1.449.981v2.962c0,.9-.041.94-.449.96l-.286.02-.02.02a.2.2,0,0,0-.041.184.188.188,0,0,0,.082.123h.041c.47-.02.756-.02,1.124-.02h.735c.715,0,1.43,0,2.206.02h.041l.02-.041c.061-.163.266-.817.327-1.1m-5.639-4.086a.275.275,0,0,0,.041-.184.138.138,0,0,0-.082-.123h-.041c-.286.02-.531.02-.8.02-.327,0-.633,0-.858-.02h-.041a.172.172,0,0,0-.082.143.232.232,0,0,0,.061.163l.02.02.163.02c.286.041.306.1.306.1a.762.762,0,0,1-.061.306c-.143.368-.531,1.307-.756,1.839-.061.143-.143.327-.225.531-.163.368-.347.817-.511,1.164-.388-.9-.756-1.8-1.1-2.717a9.686,9.686,0,0,1-.409-1.124c.02-.02.082-.061.327-.1l.143-.02.02-.02a.232.232,0,0,0,.061-.163.172.172,0,0,0-.082-.143H88.7c-.368.02-.654.02-1,.02s-.613,0-.858-.02h-.02l-.02.02a.172.172,0,0,0-.082.143.232.232,0,0,0,.061.163l.02.02.163.02c.327.041.429.184.613.633l1.451,3.575a8.5,8.5,0,0,1,.368,1.083v.041l.02.02a.348.348,0,0,0,.143.02.219.219,0,0,0,.123-.041l.02-.02v-.02c.143-.449.531-1.41.858-2.145l.449-1.022a20.561,20.561,0,0,1,.919-1.88.511.511,0,0,1,.388-.266l.327-.041Zm-5.373,11.441a6.533,6.533,0,0,0-2.492,5.23,6.372,6.372,0,0,0,2.8,5.434,8.753,8.753,0,0,0,4.924,1.328,12.328,12.328,0,0,0,3.126-.449,3.9,3.9,0,0,1,.695-.2,6.919,6.919,0,0,0,.94-2.7.4.4,0,0,0-.511-.082,4.2,4.2,0,0,1-4.127,2.819c-3.248,0-5.863-2.288-5.863-6.435,0-4.086,2.574-6.006,5.6-6.006,2.86,0,3.759,1.532,4.045,2.881a.4.4,0,0,0,.531-.041c-.163-1.205-.266-2.452-.286-2.9a1.393,1.393,0,0,1-.552-.082,14.863,14.863,0,0,0-3.493-.47,8.479,8.479,0,0,0-5.332,1.675m-2.533-7.5v-2.921c0-.9.02-.96.449-.981l.225-.02h.02c.041-.02.061-.082.061-.163a.244.244,0,0,0-.082-.163h-.041c-.388.02-.674.02-1.021.02s-.633,0-1.042-.02h-.041a.211.211,0,0,0-.082.163.2.2,0,0,0,.061.163h.02l.225.02c.409.041.449.1.449.981v2.921c0,.878-.02.94-.449.981l-.225.02-.02.02a.2.2,0,0,0-.041.184.138.138,0,0,0,.082.123h.041c.409-.02.695-.02,1.042-.02.327,0,.613,0,1.021.02h.041a.211.211,0,0,0,.082-.163.232.232,0,0,0-.061-.163l-.225-.041c-.47-.02-.49-.061-.49-.96m-4.127,16.18v-7.028c0-2.084.041-2.431,1.205-2.533l.49-.041c.123-.082.082-.429-.041-.49-.981.041-1.655.061-2.452.061-.838,0-1.491-.02-2.492-.061-.123.061-.163.409-.041.49l.49.041c1.165.1,1.205.429,1.205,2.533v7.028c0,2.084-.041,2.37-1.205,2.513l-.49.061a.369.369,0,0,0,.041.49c.981-.041,1.655-.061,2.492-.061.8,0,1.471.02,2.452.061.123-.061.163-.409.041-.49l-.49-.061c-1.164-.143-1.205-.429-1.205-2.513m1-20.123a.232.232,0,0,0,.061-.163.207.207,0,0,0-.082-.143l-.02-.02h-.02c-.266.02-.49.02-.838.02-.286,0-.552,0-.96-.02h-.041a.209.209,0,0,0-.1.123.155.155,0,0,0,.061.184l.02.02.163.02c.286.041.429.082.47.143a4.845,4.845,0,0,1,.163,1.675v1.982c-.286-.286-.592-.633-.96-1.042l-1.144-1.287a9.525,9.525,0,0,1-1.389-1.777l-.02-.041h-.041a1.99,1.99,0,0,1-.368.02c-.143,0-.572,0-.919-.02h-.041a.138.138,0,0,0-.082.123.2.2,0,0,0,.041.184l.02.02.163.02a.671.671,0,0,1,.47.184.743.743,0,0,1,.163.552V265.1a7.739,7.739,0,0,1-.1,1.594c-.02.041-.082.1-.306.123l-.245.02-.02.02a.159.159,0,0,0-.041.163.172.172,0,0,0,.082.143l.02.02h.02c.286-.02.511-.02.858-.02.286,0,.552,0,.96.02h.02l.02-.02a.188.188,0,0,0,.082-.123.22.22,0,0,0-.041-.163l-.02-.02-.286-.02q-.306-.031-.368-.123a5.891,5.891,0,0,1-.143-1.675v-1.8a2.477,2.477,0,0,1,.02-.409c.123.143.347.409.552.633.143.163.266.306.347.388l1.9,2.166a14.358,14.358,0,0,1,1.042,1.246l.02.02h.041a.221.221,0,0,0,.225-.143V267.1c-.02-.1-.02-.429-.02-1.43v-2.084a5.9,5.9,0,0,1,.123-1.553.864.864,0,0,1,.409-.143Zm-7.375-.02a.17.17,0,0,0,.041-.163.138.138,0,0,0-.082-.123l-.02-.02h-.02c-.286.02-.511.02-.858.02-.306,0-.613,0-.94-.02h-.02l-.02.02c-.041.02-.061.082-.082.123a.22.22,0,0,0,.041.163l.02.02.225.02c.184.02.327.061.368.143a5.087,5.087,0,0,1,.143,1.675v.94c0,.96-.266,2.125-1.573,2.125-1.1,0-1.614-.674-1.614-2.125v-1.777c0-.879.02-.94.429-.981l.2-.02h.02a.159.159,0,0,0,.061-.143.186.186,0,0,0-.082-.163h-.041c-.388.02-.674.02-1,.02-.347,0-.633,0-1.021-.02h-.041c-.061.02-.082.1-.082.163a.159.159,0,0,0,.061.143h.02l.225.02c.409.041.429.1.429.981v1.941a2.321,2.321,0,0,0,.674,1.982,2.408,2.408,0,0,0,1.573.47,2.271,2.271,0,0,0,1.614-.613,2.893,2.893,0,0,0,.592-2v-.94a8.262,8.262,0,0,1,.1-1.655.478.478,0,0,1,.368-.163l.225-.02Zm-9.459,10.542c.123-.082.082-.429-.041-.49-.858.041-1.512.061-2.288.061-.858,0-1.512-.041-2.492-.061-.123.061-.163.409-.041.49l.511.041c1.021.082,1.164.409,1.164,2.492v7.11c0,2.084-.041,2.268-1.144,2.472l-.327.061a.369.369,0,0,0,.041.49c.776-.02,1.451-.061,2.288-.061.776,0,1.451.02,2.513.061.123-.061.163-.409.041-.49l-.572-.061c-1.1-.123-1.205-.388-1.205-2.472v-2.778c0-.592.041-.633.981-.633h5.659c.94,0,.981.041.981.633v2.778c0,2.084,0,2.268-1.205,2.472l-.368.061a.369.369,0,0,0,.041.49c.878-.041,1.573-.061,2.39-.061.776,0,1.451.02,2.39.061.123-.061.163-.409.041-.49l-.47-.061c-1.144-.143-1.185-.388-1.185-2.472v-7.11c0-2.084.041-2.37,1.185-2.492l.409-.041c.123-.082.082-.429-.041-.49-.9.041-1.553.061-2.329.061-.817,0-1.491-.02-2.39-.061-.123.061-.163.409-.041.49l.368.041c1.165.123,1.205.409,1.205,2.492v2.268c0,.613-.041.633-.981.633H64.206c-.94,0-.981-.02-.981-.633v-2.268c0-2.084.041-2.37,1.185-2.492Zm-.8-6.435h0v-.041a.225.225,0,0,0-.2-.123.156.156,0,0,0-.1.041l-.02.02a2.276,2.276,0,0,1-.552.776,2.52,2.52,0,0,1-1.021.123c-.695,0-.858-.082-.94-.163-.123-.123-.143-.388-.143-.817v-1.164c0-.163,0-.163.2-.163h.47a2.27,2.27,0,0,1,.613.041c.123.02.163.1.2.266l.082.327.02.02c.02.041.082.061.163.061s.143-.02.163-.082v-.02h0a1.764,1.764,0,0,0-.02-.306c0-.143-.02-.327-.02-.49s.02-.347.02-.511c0-.123.02-.245.02-.327V263.4a.183.183,0,0,0-.163-.082.159.159,0,0,0-.143.061l-.082.368c-.041.184-.082.225-.163.245a3.818,3.818,0,0,1-.674.041h-.47c-.2,0-.2,0-.2-.163v-1.655c0-.266,0-.266.184-.266H61.8a3.879,3.879,0,0,1,.776.041c.368.1.449.327.572.695l.02.041.02.02a.159.159,0,0,0,.143.061c.061,0,.143-.02.163-.082l.02-.02-.02-.123a8.558,8.558,0,0,0-.123-1.021l-.02-.061-.061.02c-.1.02-.613.02-1.1.02H60.61c-.306,0-.592,0-.96-.02h-.041a.211.211,0,0,0-.082.163.232.232,0,0,0,.061.163l.163.02c.429.041.449.1.449.981v2.962c0,.9-.041.94-.449.96l-.286.02-.02.02A.2.2,0,0,0,59.4,267a.138.138,0,0,0,.082.123h.041c.47-.02.756-.02,1.124-.02h.735c.715,0,1.43,0,2.206.02h.041l.02-.041c.061-.163.266-.817.327-1.1m-6.885-.123v-2.962c0-.879.02-.94.429-.981l.163-.02.02-.02c.041-.02.061-.082.061-.163a.244.244,0,0,0-.082-.163h-.041c-.388.02-.674.02-.96.02-.347,0-.654,0-1-.02h-.041a.211.211,0,0,0-.082.163.232.232,0,0,0,.061.163l.184.02c.429.041.449.1.449.981v.94c0,.2,0,.2-.347.2H53.562c-.347,0-.347,0-.347-.2v-.94c0-.879.02-.94.429-.981l.163-.02.02-.02c.041-.02.061-.082.061-.163a.244.244,0,0,0-.082-.163h-.041c-.368.02-.654.02-.96.02a5.937,5.937,0,0,1-.613-.02,3.314,3.314,0,0,1-.429-.02H51.8a.211.211,0,0,0-.082.163.2.2,0,0,0,.061.163h.02l.225.02c.368.02.429.1.429.981v2.962c0,.858-.02.9-.429.96l-.163.02-.02.02a.2.2,0,0,0-.041.184.188.188,0,0,0,.082.123h.041a1.65,1.65,0,0,0,.327-.02c.2,0,.388-.02.633-.02.306,0,.572,0,1.042.02h.041c.061-.02.082-.1.082-.163a.232.232,0,0,0-.061-.163l-.266-.041c-.388-.041-.449-.082-.449-.96v-1.165c0-.2,0-.2.347-.2h2.349c.347,0,.347,0,.347.2v1.165c0,.879,0,.9-.449.96l-.184.02-.02.02a.2.2,0,0,0-.041.184.188.188,0,0,0,.082.123h.041c.388-.02.674-.02,1-.02s.613,0,1,.02h.041a.211.211,0,0,0,.082-.163.232.232,0,0,0-.061-.163l-.225-.041c-.47.082-.49.041-.49-.838m-6.762-4.392v-.02l-.02-.02a.17.17,0,0,0-.143-.061.154.154,0,0,0-.082.02h-.02l-.02.02c-.1.184-.143.2-.592.2H46.044c-.368,0-.531-.02-.572-.2v-.02l-.02-.02a.173.173,0,0,0-.123-.041.3.3,0,0,0-.123.02l-.02.02v.02a10.74,10.74,0,0,1-.306,1.226v.02l.02.02a.231.231,0,0,0,.306.082h.02v-.02a1.026,1.026,0,0,1,1.308-.735h.449c.184,0,.184,0,.184.2v3.677c0,.9-.041.94-.449.96l-.306.02h-.02a.183.183,0,0,0-.082.163.137.137,0,0,0,.082.143h.041c.511-.02.817-.02,1.144-.02s.592,0,1.083.02H48.7c.061-.02.082-.1.082-.163a.232.232,0,0,0-.061-.163l-.286-.041c-.409-.041-.429-.082-.429-.96v-3.7a.4.4,0,0,1,.02-.184.351.351,0,0,1,.163-.02h.592a1.489,1.489,0,0,1,.919.2.981.981,0,0,1,.184.552v.02l.02.02a.159.159,0,0,0,.143.061.183.183,0,0,0,.163-.082v-.041a5.41,5.41,0,0,1,.123-1.185m-5.6,17.12a6.372,6.372,0,0,0,2.8,5.434,8.753,8.753,0,0,0,4.924,1.328,12.328,12.328,0,0,0,3.126-.449,3.9,3.9,0,0,1,.695-.2,6.919,6.919,0,0,0,.94-2.7.4.4,0,0,0-.511-.082,4.2,4.2,0,0,1-4.127,2.819c-3.248,0-5.863-2.288-5.863-6.435,0-4.086,2.574-6.006,5.6-6.006,2.86,0,3.759,1.532,4.045,2.881a.4.4,0,0,0,.531-.041c-.163-1.205-.266-2.452-.286-2.9a1.442,1.442,0,0,1-.552-.082,14.718,14.718,0,0,0-3.494-.47,8.479,8.479,0,0,0-5.332,1.675,6.474,6.474,0,0,0-2.492,5.23m-5.148-3.35v-13.77a96.668,96.668,0,0,0-19.388,0v13.77a11.294,11.294,0,0,0,9.7,10.4,11.173,11.173,0,0,0,9.684-10.4m-16.283,3.453a3.446,3.446,0,0,0,.572.245c.245.613,0,1.226-.123.981a6.946,6.946,0,0,1-.449-1.226m.02-6.762h0c-.041-.02-1.246.756-2.023.388.592-.327,2.615-1.614,3.167-1.982a.448.448,0,0,0,.449-.1c-.2.02-.919.123-.552-.511.143.572,1.124.041,1.471-.041.981-.225.981.817.9,1.267-.041.163.306.286.47.245-.286.695-.756.041-.817.306-.02.1-.347.184-.347.47,0,.368.143.163.163.449.02.266-.123.061-.082.368.041.47.817-.061,1.144.061.163.061.266.2.429.184.041-.041.02-.225.02-.286-.02-.143-.286-.163-.429-.368-.1-.184.123-.715.266-.878.184.878,1.021.613,1.144,1.532.082.266-.286.552,0,.981a1.49,1.49,0,0,0-.02,1.7.833.833,0,0,0,.225,1,1.363,1.363,0,0,0,.02,1.021c-.245,0-.2-1.43-1.716-1.471-.041-.02-.041.163,0,.245.184.327.429.306.368,1.062-.02.266-.163-.041-.245-.123a.841.841,0,0,1-.409-.715,1.354,1.354,0,0,0-.511,1.369s-.143-.368-.286-.756c0-.02.633-.8.735-.96,1.287-2.309-.838.756-.838.735a2.858,2.858,0,0,0-.286-.572,5.614,5.614,0,0,0,.531-.756c1-2.063-.592.695-.654.633-.123-.1-.225-.245-.286-.2-.02.327-.1.266-.061.592a3.8,3.8,0,0,1-.776.735,5.4,5.4,0,0,1-.041-.592c.123-.143.613-.674.715-.838,1.634-2.554-.756.613-.776.592a1.066,1.066,0,0,0-.286-.409,9.876,9.876,0,0,0,.654-.981c.981-2.043-.8.9-.817.9a.528.528,0,0,0-.1-.041,4.725,4.725,0,0,1,.123-.94c.143-.674-.225-.123-.327.94a1.043,1.043,0,0,0-.409.123c.061.286.123.061.245.347.143.327-.2.878.1,1.267.123.143.123.123.1.225-.184-.02-.286-.02-.409.143A7.788,7.788,0,0,1,23.1,275.7a7.182,7.182,0,0,0,.1-1.205c-.061-.02-1.144,2.758-1.41,3.31-.449-.163.286-2.554,1.226-3.718.082-.368-.49.368-.838.674-.327.266-.715.633-1.165.511.572-.592,1.859-1.716,2-1.982.123-.245-.878.735-1.941.368.633-.368,2.227-1.185,2.247-1.737m1.9,5.21a2.006,2.006,0,0,0,.061.695c.123.388.061.266-.1.143a1.511,1.511,0,0,1-.306-.429c-.02-.123.061-.123.347-.409m2.554-6.252c-.163-.266.184-.511.184-.511,0,.735.94.225,1.43.47a.511.511,0,0,1,.245.266c-.531-.368-1.512.368-1.859-.225m-5.557-5.9a.633.633,0,0,1,0-1.267.633.633,0,0,1,0,1.267m0,2.513a.633.633,0,1,1,0-1.267.633.633,0,0,1,0,1.267m1.594-2.717h-.735v-.715h.735Zm0,2.513h-.735v-.715h.735Zm5.945,1.246a4.743,4.743,0,0,0-1.675-.47c-.878-.061-2.635.633-3.984.552v-5.945a6.551,6.551,0,0,0,2.186-.041,3.822,3.822,0,0,1,3.494.1v5.8Zm1.491.981a.244.244,0,0,1-.163.286.468.468,0,0,0,.552-.245c.123.511-.388.552-.552.572,0,0,.266.082.286.245.041.429.306.409.368.368-.02.061-.1.327-.409.082-.061.061.082.143.123.347.041.266.02.531.347.695-.2.163-.429-.245-.449-.2-.02.061.266.2-.061.96-.143-.082-.061-.061-.245-.266-.123-.1-.184-.143-.082.041a1.223,1.223,0,0,1,.163.919c-.163-.061-.123-.184-.306-.368a.952.952,0,0,0,.245.613,1.416,1.416,0,0,1,.449.736,9.48,9.48,0,0,1-.082.981c-.163-.02-.286-.47-.327-.449a.9.9,0,0,0,.327.715c.143.429.082.654.041.654-.041.02-.2-.429-.306-.347a1.982,1.982,0,0,1,.02,1.8c-.082-.347-.123-.592-.245-.981-.225.184-.286.449-.572.695a4.817,4.817,0,0,0-.449-1.757c0-.02-.368.96-.531,1.389a2.481,2.481,0,0,0,0,1.8c-.531-.756-.572-2.145-.123-2.329.041-.1-.02-.429-.123-.388a.778.778,0,0,1-.143.449c-.347-.1-.184-.531-.163-.674.449-.531.163-.674.143-.654a.463.463,0,0,1-.225.327,1.674,1.674,0,0,1,.449-1.859c.02-.225-.245.163-.429.143a.962.962,0,0,1,.878-1.164c-.143-.041-.225-.061-.266-.2.225-.041.96-.082.858-.674a.912.912,0,0,1-.286.286.251.251,0,0,1-.347-.02c.347-.123.225-.531-.225-.409a.313.313,0,0,1-.347-.266c.1.1.306.02.409-.041a.609.609,0,0,1,.878.245c.02,0,.225-.47-.49-.592a.655.655,0,0,0-.715-.429c-.163-.552-.633-.286-.633-.02-.511-.368,0-.858.225-.919.143.02.1.47.368.388.061-.02-.2-.306-.1-.449.225-.123.225.163.347.061a.536.536,0,0,1,.47-.327c.531-.061.94.511,1.451.245m4.7-.879a35.735,35.735,0,0,1-4.086-.572,3.08,3.08,0,0,0-1.839.49v-5.8a4.4,4.4,0,0,1,2.8-.327,7.5,7.5,0,0,0,3.126.306Zm1.491-2.288c.633-.082.715.654.715.654h0a.618.618,0,0,0-.674-.041,2.688,2.688,0,0,1-1.328.449v-1.124c0-.02.143.225,1.287.061m.735-1.553c0-.041-.02-.082-.02-.163-.02-.123-.347-.184-.572-.082-.327.143-1.124.592-1.41.511v-1.124a1.592,1.592,0,0,0,1.226.02.724.724,0,0,1,.756.674.575.575,0,0,1,.02.163m-.8,11.686a2.153,2.153,0,0,0-.9.49,7,7,0,0,0-.449-2.676c-.245-.552.1,1.287.123,1.716,0,.02-2-2.574-.8-.572a3.229,3.229,0,0,0,.8.858,2.866,2.866,0,0,1-.082.817c-.123.1-2.717-3.453-1.287-1,.184.306,1.226,1.226,1.205,1.246a1.452,1.452,0,0,1-.347.49c-.02-.02-.592-.449-.592-.47-.041-.266-.041-.531-.388-.347,0,0-1.287-1.491-.695-.449a2.162,2.162,0,0,0,.49.592,1.611,1.611,0,0,0-.266.552c-.02.123-1.1-1.205-.674-.368.143.266.633.552.633.572a1.9,1.9,0,0,1-.163.449,9.187,9.187,0,0,1-1.021.9,2.029,2.029,0,0,1,.592-.9,2.946,2.946,0,0,1,.388-.225.327.327,0,0,0-.2-.266,2.26,2.26,0,0,0-.592.041c.041-.225-.163-.715-.143-1.246a1,1,0,0,0-.531.429c-.061.878-.245.613-.429,1.246-.2-.266.02-.654-.184-.9a1.61,1.61,0,0,1-.347-1c.061-.041.327-.327.082-.96-.041-.981.388-1.348-.388-2.043.061-.02.123-.511.123-.511.572.306.47-.347.695-.49.347-.2.286-.429.123-.695,1.021.286-.041.981.409,1a.7.7,0,0,0,.695-.306c.163-.245-.02-.388.409-.776.041-.041.163-.286-.184-.368-.082-.02,0-.306,0-.306-.266.225-.368.552-.8.347a.5.5,0,0,0-.47.041.21.21,0,0,1,.143-.245c.49-.163.613-.347.572-.47-.061-.245-.082,0-.061-.266,0-.1.123-.245.225-.368.327-.388.552-.245.633-.2a.962.962,0,0,1,.409-.2,2.292,2.292,0,0,1,1.328.245.983.983,0,0,0,.592.082.2.2,0,0,1-.143.184c-.123.041-.245,0-.245.082,0,.041.163.061.266.082.552.143,1.246.633.8.531-.061-.02.327.286.633.674l1.042,1c-.041.061-.409,0-1.573-1.083-.163.143,1.41,1.328,2.043,2.574a2.433,2.433,0,0,1-1.144-.552c-.449-.47-.96-1.634-1.165-1.471-.02,0,.858,1.369,1.287,2.186a3.366,3.366,0,0,1,.409,1.43c.061,2.186-.266,2.023-.266,2.023-.511-1.716-.756-3.718-1.491-4.638-.266-.266.838,1.716.878,3.493m-2.268,1.961c-.225.2-.388.266-.327.184a1.484,1.484,0,0,0,.123-.286c.02-.041.2.1.2.1m-.143-.266c.041-.184.041-.306.082-.47a.259.259,0,0,0,.02-.123c0-.02.49.409.531.429a2.551,2.551,0,0,1-.347.327c-.1-.082-.286-.143-.286-.163m1.614.552c-.695.695-1.737.429-2.554.8-.735.266-1.287.96-2.063,1.124-.225.082-.266.184-.123.184a1.235,1.235,0,0,0,1.308.1c.245-.123,1.042-.572,1.165-.592-.429.409-.633.776-1.021.981a3.713,3.713,0,0,1-2.125.286c-.429-.082-.735.306-.633.306a.612.612,0,0,1,.633.163c.266.225.674.49,1.021.082a.83.83,0,0,1,1.165.1c-.552-.02-.49.94-1.512.838-.388,0-1.226-.878-1.471-.613-.429.47.919.94.327,1.532-.531.552-1.144-.429-1.144-.429.327.143.94.225.654-.306a1.515,1.515,0,0,1-.306-.8c-.041-.2-1.246,1.553-2.043.756a6.39,6.39,0,0,0-1.512-1.246c1.512-.123,1.737.47,1.818.572.49.654.94,0,1.042-.123.163-.184.388-.429.306-.47a2.062,2.062,0,0,0-1.757-.1c1.062-1.471,1.9-.1,1.9-.1.123.082-.041-.879-1.083-.919-.654-.041-1.246.572-1.7.572a2.987,2.987,0,0,1-1.757-1.43,2.014,2.014,0,0,0,2,.47c.981-.592,2.206.306,2.268.184a2.337,2.337,0,0,0-2.574-.572c-.654.368-.919-.286-1.328-.286a1.268,1.268,0,0,1,1.389-.286c.061,0-.286-.286-.531-.306a11.185,11.185,0,0,1-3.044-.695s.163-.368.96-.1c0,0-.715-.449-.715-1,.02-.347.184-.715-.082-1,1.083-.041.306,1.471,1.062,1.839a.506.506,0,0,1,.123-.633,1.18,1.18,0,0,0,.817.736.773.773,0,0,0,.143-.163,2.473,2.473,0,0,1-.245-1.655h.02c.061,0,.163.225.245.368a5.149,5.149,0,0,0,.47,1.226,3.728,3.728,0,0,0,.429.552.973.973,0,0,0,0-.49,1.014,1.014,0,0,1,.245-1.1c.2.592.49.429.511.695a1.316,1.316,0,0,1,0,.633c.02.429.409.531.735.8a3.715,3.715,0,0,1,1.594,1.164c.163-.9-2.268-1.083-1.941-2.8-.041-.695.082-.756-.409-1.164.981.02,1.491,1.614,1.553,1.92.1.531.429.572.858,1.267a4.312,4.312,0,0,1,.225-3.473,2.623,2.623,0,0,1,.184,1.389,2.153,2.153,0,0,0,.02.9,1.921,1.921,0,0,1,.695-1.267c.041.368.409.94.061,1.553-.409.735-.429.47-.449,1.389a3.784,3.784,0,0,1,.429-.981c.592-.735.163-1.144.735-1.777.041.327.123.184.163.47.082.633-.592,1.348-.449,1.328.163-.02.449-.163.531-.654,0,0,.245.449.02.592a.786.786,0,0,0-.429.878c.327-.388.776-.817.695-1.369.041-.327.409-.47.47-1.246a.56.56,0,0,1,.266-.347c-.061.429.286.9-.1,1.43.082.041.409-.409.9-.245-.96.184-.674,1.205-1.41,1.7-.225.143-.184.306-.245.327.654-.041,1.164-.817,1.246-.878.654-.449.8-.511,1.062-1.246a1.358,1.358,0,0,1,.388-.776,2.516,2.516,0,0,1-.123,1.287c-.123.347-.531.654-.449.654a3.633,3.633,0,0,0,2.166-1.859,2.161,2.161,0,0,1,.981-.613c-.061.123-.306.306-.306.531a1.7,1.7,0,0,1-.347.94c.1.143.327-.266.531-.061-.2.061-.327.388-.552.572m.306-.1a3.671,3.671,0,0,1-.592,1.43c-.225.306-.306-.306-.123-.878a1.877,1.877,0,0,0,.715-.552m-1.348-13.075a.488.488,0,0,0-.184-.041.052.052,0,0,0-.02.1.57.57,0,0,0,.2.02c.041.02.041-.061,0-.082m-.2.245a1.763,1.763,0,0,0,.2.041c.041,0,.041-.082,0-.1a.488.488,0,0,0-.184-.041c-.061.02-.082.082-.02.1m0,1.124a1.419,1.419,0,0,0-.245-.2,2.552,2.552,0,0,1-.245.163,2.3,2.3,0,0,0-.225-.225c-.061.041-.245.2-.327.266.123,0,.286.041.286.143v.715a.968.968,0,0,0,.245,0v-.756a.444.444,0,0,0,.1-.061c.041.02.163.163.225.2.041-.041.163-.143.225-.2.061-.041,0-.082-.041-.041m-.306-.879a1.192,1.192,0,0,0,.163-.449.583.583,0,0,0-.368-.531.736.736,0,0,0-.531.695c0,.184.143.552.47.552a.825.825,0,0,1,.266-.266m-.2.061a.831.831,0,0,1-.327-.327.384.384,0,0,1,.123-.49c.143.061.327.2.327.327a.734.734,0,0,1-.123.49m-.02-1.369.245-.266a1.1,1.1,0,0,1-.163-.163,5.357,5.357,0,0,1,.02-.592c-.184-.163-.306-.184-.388-.163-.143.02-.286.2-.347.266-.041.041-.02.1,0,.143a.446.446,0,0,0,.1.061.02.02,0,0,1-.02-.02.68.68,0,0,0-.163.368.7.7,0,0,0,.184.368.971.971,0,0,1,.388-.2.4.4,0,0,0,.143.2m-.143-.592a1.429,1.429,0,0,1-.429-.225c-.02-.02-.02-.02,0-.061.061-.082.123-.143.163-.143s.266.123.266.184a.95.95,0,0,1,0,.245m.02.347a.329.329,0,0,0-.184.061.39.39,0,0,1-.1-.47.063.063,0,0,0-.041-.02,1.251,1.251,0,0,0,.347.143v.2a.051.051,0,0,0-.02.082m-.695-1.062a3.023,3.023,0,0,1-.449-.02.409.409,0,0,1,.02-.306c.041-.061-.02-.1-.061-.02a.952.952,0,0,1-.409.409c-.1.041.123.123.1.123a4.116,4.116,0,0,0,.082.776c.041.082.143.225.2.184.041-.02.143-.225.184-.245.061-.041,0-.123-.041-.082s-.1-.02-.1-.061a3.2,3.2,0,0,1-.041-.613s.449-.061.49-.061c.061.02.061-.082.02-.082m-1.205,1,.184-.245a.39.39,0,0,1-.286-.143v-.592l-.184-.184h-.061l-.286.266c-.02.041.041.041.082,0l.2.123v.572a.679.679,0,0,0,.163.225h.184Zm-.163-1.308.1-.082v-.143l-.143-.143-.143.123v.163l.082.082Zm-.47-.184c-.082,0-.347.02-.429.02-.1.02-.1.061-.02.061s.1.02.143.123a1.8,1.8,0,0,1-.2.695,2.676,2.676,0,0,1-.245-.572c0-.041.082-.082.123-.1.082-.02.082-.082.02-.082-.163-.02-.695-.061-.8-.082-.061,0-.1.082-.02.082a.24.24,0,0,1,.266.123,7.075,7.075,0,0,1,.531,1.226c.041-.061.388-1.062.409-1.185a.352.352,0,0,1,.2-.245c.1,0,.1-.041.02-.061m-1.634,2.431c0,.409.163.449.368.552a1.066,1.066,0,0,0,.715.02c.082-.02.123-.02.123.041a.031.031,0,1,0,.061,0v-.429a.031.031,0,0,0-.061,0,.206.206,0,0,1-.061.163.472.472,0,0,1-.756-.061c-.061-.1-.143-.225-.061-.245a2.345,2.345,0,0,1,.49.041,1.668,1.668,0,0,1,.368.041c.02.02.061.041.061,0v-.266c0-.041-.041-.02-.061,0a2.6,2.6,0,0,1-.368.082,2.015,2.015,0,0,1-.49.02c-.082-.02-.061-.184.02-.286a.5.5,0,0,1,.8-.02.206.206,0,0,1,.061.163.031.031,0,1,0,.061,0v-.49a.031.031,0,0,0-.061,0c0,.041-.061.041-.143.041a1.473,1.473,0,0,0-.695.1.7.7,0,0,0-.368.531m.061.735c0,.123.041,1.144.041,1.287,0,.082.1.163.2.225a.968.968,0,0,1,.245-.266c.041-.041.02-.061-.02-.061-.082.041-.163,0-.163-.082v-1.1a.772.772,0,0,1-.306,0m.858.838a.636.636,0,0,0-.184.347.4.4,0,0,0,.143.306,1.759,1.759,0,0,1,.409-.286c.02.1.1.1.184.163.041-.061.225-.266.266-.306s.02-.082-.041-.041-.1.02-.184-.082a3.942,3.942,0,0,1,.02-.511c-.082-.082-.163-.2-.266-.2-.143.02-.327.266-.368.327-.041.041,0,.225.02.245-.02.041-.02.041,0,.041m.1.082c.082.041.123.02.245,0v.184a1.8,1.8,0,0,1-.2.123c-.061-.061-.163-.1-.041-.306m-.082-.368c.061-.082.082-.1.123-.1s.184.1.184.163v.225a.314.314,0,0,1-.306-.082c-.02,0-.02-.163,0-.2m.9-.163c-.1.041.123.123.1.123,0,.245-.061.654.041.776a.249.249,0,0,0,.245.1.949.949,0,0,0,.2-.2c.061-.041,0-.082-.041-.041s-.184.02-.184-.041a2.864,2.864,0,0,1,0-.592h.2c.041,0,.041-.1,0-.1-.061,0-.184-.02-.184-.041a.49.49,0,0,1,.041-.286c.041-.061-.02-.1-.061-.041a.869.869,0,0,1-.368.347m.041-1.124a.831.831,0,0,1-.245.592c.225-.061.266-.2.388-.347a1.266,1.266,0,0,0,.286.286,2.034,2.034,0,0,0,.286-.306.941.941,0,0,1-.47-.327.186.186,0,0,1,.02-.245c.041.061.368.2.511-.041a.8.8,0,0,1-.347-.245,1.525,1.525,0,0,1-.266.225.3.3,0,0,0-.245-.184,3.863,3.863,0,0,1-.388.286.044.044,0,0,0,.02.082c.041-.02.123-.082.2-.123a.368.368,0,0,1,.245.347m1.083.041a.345.345,0,0,1,.184-.245c.061.061.123.143.225.143a.327.327,0,0,0,.225-.082,1.872,1.872,0,0,1-.286-.286c-.082.041-.49.245-.511.49a.67.67,0,0,0,.2.613.3.3,0,0,0,.286.1,2.709,2.709,0,0,0,.347-.327.023.023,0,1,0-.041-.02c-.041.02-.02.041-.061.041a.621.621,0,0,1-.327-.02c-.1-.061-.286-.2-.245-.409m-.184,1.1a2.248,2.248,0,0,0-.245.225.179.179,0,0,1,.184.1,3.941,3.941,0,0,1,.02.511c0,.123.082.143.163.245a2.086,2.086,0,0,0,.449-.184.3.3,0,0,0,.184.225c.041-.061.1-.082.163-.143-.061-.041-.061-.061-.082-.143a5.308,5.308,0,0,1,0-.572.932.932,0,0,0-.245-.245c-.061.061-.143.143-.266.245.082-.02.225.02.245.082a2.693,2.693,0,0,1,0,.409c-.02.143-.409.082-.409-.02s.02-.388.02-.511a.639.639,0,0,0-.184-.225m-2.554,3.453h0a3.169,3.169,0,0,1-.592-.286.55.55,0,0,0-.572.143c0,.082.082.123.306-.02a.244.244,0,0,0,.02.368.866.866,0,0,1-.245-.082c-.02.082.082.1.143.143.368.163.613-.2.94-.266m-.633.2s.1-.1.1-.184a.278.278,0,0,0-.1-.184,3.093,3.093,0,0,1,.368.184Zm-2.063-2.86.1-.123c-.123-.02-.061-.02-.123-.082v-.49l-.163-.225H27.8l-.245.225c-.061.061,0,.082.061.02l.163.082v.531c.02.061.061.082.143.163Zm.061-1.737a.484.484,0,0,0,.429.327,3.031,3.031,0,0,1,.163-.266c.061-.082,0-.143-.041-.041-.041.082-.225,0-.286-.082a.357.357,0,0,1-.082-.388c.082-.082.184-.041.327-.041.1,0,.1-.082.123-.123a1.83,1.83,0,0,0-.2-.1c-.082.061-.225.184-.286.225a.458.458,0,0,0-.143.49m.347,1.328a.556.556,0,0,0-.163.327.319.319,0,0,0,.163.306.89.89,0,0,1,.388-.2.892.892,0,0,0,.225.184,2.04,2.04,0,0,1,.225-.2c.041-.041,0-.082-.041-.041-.02.041-.123.02-.143-.041,0-.061-.041-.592-.02-.633-.082-.082-.225-.286-.306-.286a.934.934,0,0,0-.388.266.588.588,0,0,0,.061.327h0m.347.041a.426.426,0,0,1-.306-.123.273.273,0,0,1-.02-.184c.041-.082.041-.1.082-.1s.245.123.225.184a.271.271,0,0,1,.02.225m-.266.02A.3.3,0,0,0,28.8,267v.143c0,.02.02.041.02.082-.061.02-.143.041-.2.061-.061-.041-.245-.184-.082-.327m.776-1.021.1-.123c-.123-.02-.123-.02-.184-.082v-.572l-.1-.163h-.061l-.245.225c-.061.061,0,.082.061.02l.123.082v.531c.02.061.061.082.143.163Zm-.2-2c-.041,0-.123.082.163.123.061,0,.123-.123-.163-.123m0-.184c-.041,0-.123.143.163.123.061,0,.1-.1-.163-.123m.061.9-.123-.143-.123.123v.163l.082.082h.082l.1-.082v-.143Zm-.266-1.226a.587.587,0,0,0-.388-.2.778.778,0,0,0-.531.306c-.1.163.02.306.163.409-.082.082-.2.184-.306.286a.94.94,0,0,0,.429.163.827.827,0,0,0,.511-.2c.2-.163.143-.347-.082-.47a.075.075,0,0,0-.061-.02c.123-.143.245-.225.266-.266m-.531.449c.082.041.143.061.225.1.123.061.061.184-.061.245s-.347-.1-.388-.163a1.2,1.2,0,0,1,.225-.184m.225-.306c-.02.02-.082.061-.123.1h-.1a.337.337,0,0,1-.2-.163c-.041-.061.082-.123.143-.123a.947.947,0,0,1,.286.184m-.878.47a.4.4,0,0,1-.49-.245c.123-.123.347-.347.47-.449-.082-.082-.123-.2-.286-.225a.618.618,0,0,0-.511.552.547.547,0,0,0,.592.592c.1,0,.2-.123.266-.143.143-.061.1-.123-.041-.082m-.531-.327c-.082-.266-.041-.347.1-.47a.527.527,0,0,0,.184.184,3.747,3.747,0,0,1-.286.286m-.347-.225c.061-.061,0-.082-.041-.041a1.56,1.56,0,0,0-.184-.184.965.965,0,0,1-.245.143c-.061-.061-.123-.061-.225-.143a1.225,1.225,0,0,0-.245.225c.123.041.2.041.225.143v.695a.823.823,0,0,0,.225,0v-.8a.283.283,0,0,0,.082-.061c.041.02.123.143.184.184a2.14,2.14,0,0,1,.225-.163m-1,1.348a.583.583,0,0,0-.388.306.521.521,0,0,0,.041.266c.02.02.041.02.041.041-.082.082-.184.163-.163.286a.353.353,0,0,0,.225.286.4.4,0,0,1,.286-.184.225.225,0,0,0,.1.2c.041-.041.225-.2.266-.245s0-.082-.041-.041c-.02.02-.082-.02-.1-.041,0-.061,0-.592.02-.633-.123-.082-.2-.266-.286-.245m.02.552c-.143.1-.2.1-.306-.02a.227.227,0,0,1-.02-.225A.259.259,0,0,1,25.7,265c.041,0,.163.143.143.225a.657.657,0,0,0,.02.163m0,.266v.082a.345.345,0,0,0-.1.041c-.061-.041-.327-.143-.143-.266.1.061.143.02.245-.041v.184m-.123-1.164a.174.174,0,0,1-.061-.1v-.409c0-.041-.082-.041-.082,0a.56.56,0,0,1-.041.245.348.348,0,0,1-.613.041.6.6,0,0,1-.082-.327.557.557,0,0,1,.1-.327.351.351,0,0,1,.613.041,1.508,1.508,0,0,1,.041.245c0,.041.082.041.082,0v-.572a.031.031,0,1,0-.061,0c0,.082-.041.082-.1.061a.787.787,0,0,0-.572,0,.634.634,0,0,0-.347.531c0,.409.163.429.327.552a.8.8,0,0,0,.613-.02c.082-.02.1.02.143.082.041.1.082.041.041-.041m-1.124.572a.564.564,0,0,0,.02.756.451.451,0,0,0,.449.123.69.69,0,0,1,.143-.225.483.483,0,0,1-.409-.1.463.463,0,0,1-.1-.592c.123-.184.306.082.347.123a1.562,1.562,0,0,1,.184-.184c-.082-.1-.123-.184-.184-.245a1.773,1.773,0,0,0-.449.347m.1,1.859c-.061.388.306.613.49.695a2.362,2.362,0,0,1,.225-.327c.061-.082,0-.1-.061-.041-.082.082-.327,0-.388-.1.123-.082.409-.347.552-.449a1.042,1.042,0,0,1-.245-.409.9.9,0,0,0-.572.633m.368-.409c.041.082.143.266.2.286a3.231,3.231,0,0,1-.368.266c-.1-.143-.163-.347.163-.552m.8-.143c-.082.061-.143.143-.245.225.041.061.143.143.143.225v.695h.2c-.02-.082,0-.695,0-.776.061-.041.061-.061.123-.1.041.041.143.061.143.123a3.591,3.591,0,0,1,0,.47.491.491,0,0,0,.061.368c.061-.061.266-.2.306-.245s.02-.061-.041-.041-.061.02-.061-.02c0-.061-.02-.388-.041-.592,0-.2-.1-.266-.163-.286-.061.061-.184.143-.266.225a1.508,1.508,0,0,1-.163-.266m.838-.511c.061-.061.123-.143.143-.163.061-.041,0-.082-.041-.041s-.123-.041-.143-.061a1.579,1.579,0,0,1-.061-.511s.306-.041.347-.041c.02,0,.041-.1,0-.1s-.286.041-.286,0a.5.5,0,0,1,.041-.368c.041-.061,0-.123-.02-.061a1.15,1.15,0,0,1-.327.409c-.1.041-.082.061-.02.082.041.02.1.061.1.061a1.411,1.411,0,0,0,.041.674c.02.1.163.184.225.123m1.021.123a.365.365,0,0,1-.2.184,1.433,1.433,0,0,0,.2.163.969.969,0,0,1,.2-.2.3.3,0,0,1-.2-.143m-.47-.266c.1,0,.245.041.409.041a.424.424,0,0,0,.266-.572c-.082-.225-.347-.184-.511-.245-.163-.041-.225-.143-.061-.266.2-.123.449.082.49.123.041.061.061.061.061-.02,0-.184-.02-.082-.041-.266,0-.061-.061-.061-.061,0s-.082.041-.143.041a.679.679,0,0,0-.368.061c-.1.061-.306.225-.184.429.061.123.49.2.592.286a.213.213,0,0,1,.02.327.551.551,0,0,1-.511-.041.373.373,0,0,1-.1-.225c-.02-.082-.082-.082-.082,0a3.048,3.048,0,0,0,.041.429c.02.061.082.041.082,0,.02-.082.061-.1.1-.1m-.429.858c-.082.061.1.143.082.143a1.345,1.345,0,0,0,.061.613c.061.082.2.123.245.061a.6.6,0,0,1,.184-.245c.061-.041,0-.082-.041-.041-.082.1-.143.041-.2-.02a.847.847,0,0,1-.02-.388s.163-.02.2-.02c.02,0,.02-.1,0-.1-.041,0-.2,0-.2-.02a1.331,1.331,0,0,1,.041-.368c0-.082-.041-.1-.061-.02a3.8,3.8,0,0,1-.286.409" fill="#91001a"/>
  </g>
</svg>
