<svg xmlns="http://www.w3.org/2000/svg" width="18.592" height="18.592" viewBox="0 0 18.592 18.592">
  <g id="statistics" transform="translate(0 0)">
    <path id="Path_33" data-name="Path 33" d="M32.634,8.715a1.626,1.626,0,0,0,1.131-.459l1.612.806a1.6,1.6,0,0,0-.02.2,1.634,1.634,0,1,0,3.268,0,1.614,1.614,0,0,0-.164-.7l2.187-2.187a1.614,1.614,0,0,0,.7.164A1.636,1.636,0,0,0,42.983,4.9a1.61,1.61,0,0,0-.082-.484l1.9-1.425a1.633,1.633,0,1,0-.73-1.359,1.61,1.61,0,0,0,.082.484l-1.9,1.425A1.627,1.627,0,0,0,39.879,5.6L37.692,7.79a1.606,1.606,0,0,0-1.831.3l-1.612-.806a1.6,1.6,0,0,0,.02-.2,1.634,1.634,0,1,0-1.634,1.634Zm0,0" transform="translate(-29.874)" fill="#8d8d8d"/>
    <path id="Path_34" data-name="Path 34" d="M18.047,162.056h-.581V150.545a.544.544,0,0,0-.545-.545H14.743a.544.544,0,0,0-.545.545v11.511H13.109v-8.243a.544.544,0,0,0-.545-.545H10.385a.544.544,0,0,0-.545.545v8.243H8.751V158.17a.544.544,0,0,0-.545-.545H6.028a.544.544,0,0,0-.545.545v3.885H4.394v-6.064a.544.544,0,0,0-.545-.545H1.67a.544.544,0,0,0-.545.545v6.064H.545a.545.545,0,0,0,0,1.089h17.5a.545.545,0,0,0,0-1.089Zm0,0" transform="translate(0 -144.553)" fill="#8d8d8d"/>
  </g>
</svg>
